<svg width="728" height="366" viewBox="0 0 728 366" fill="none" xmlns="http://www.w3.org/2000/svg">
<rect width="728" height="366" rx="24" fill="#F7F5FF"/>
<path d="M442.278 87.0702C447.058 84.3099 452.942 84.3099 457.722 87.0702L520.749 123.466C525.543 126.234 528.5 131.359 528.5 136.909V210.091C528.5 215.641 525.543 220.766 520.749 223.534L457.722 259.93C452.942 262.69 447.058 262.69 442.278 259.93L379.251 223.534C374.457 220.766 371.5 215.641 371.5 210.091V136.909C371.5 131.359 374.457 126.234 379.251 123.466L442.278 87.0702Z" fill="#7657FF" stroke="#05060F" stroke-width="4"/>
<path d="M264.778 87.0702C269.558 84.3099 275.442 84.3099 280.222 87.0702L343.249 123.466C348.043 126.234 351 131.359 351 136.909V210.091C351 215.641 348.043 220.766 343.249 223.534L280.222 259.93C275.442 262.69 269.558 262.69 264.778 259.93L201.751 223.534C196.957 220.766 194 215.641 194 210.091V136.909C194 131.359 196.957 126.234 201.751 123.466L264.778 87.0702Z" fill="white" stroke="#05060F" stroke-width="4"/>
<path d="M440.298 156.773H447.217V178.026C447.217 180.413 446.648 182.501 445.508 184.29C444.378 186.08 442.796 187.476 440.761 188.477C438.727 189.468 436.356 189.963 433.65 189.963C430.934 189.963 428.558 189.468 426.523 188.477C424.488 187.476 422.906 186.08 421.777 184.29C420.648 182.501 420.083 180.413 420.083 178.026V156.773H427.003V177.435C427.003 178.681 427.274 179.789 427.818 180.759C428.372 181.728 429.149 182.49 430.151 183.044C431.152 183.598 432.319 183.875 433.65 183.875C434.993 183.875 436.159 183.598 437.15 183.044C438.151 182.49 438.924 181.728 439.467 180.759C440.021 179.789 440.298 178.681 440.298 177.435V156.773ZM459.926 156.773L466.525 167.927H466.781L473.413 156.773H481.227L471.24 173.136L481.451 189.5H473.493L466.781 178.33H466.525L459.814 189.5H451.888L462.131 173.136L452.079 156.773H459.926Z" fill="white"/>
<path d="M272.576 156.773H279.495V178.026C279.495 180.413 278.925 182.501 277.785 184.29C276.656 186.08 275.074 187.476 273.039 188.477C271.005 189.468 268.634 189.963 265.928 189.963C263.212 189.963 260.836 189.468 258.801 188.477C256.766 187.476 255.184 186.08 254.055 184.29C252.926 182.501 252.361 180.413 252.361 178.026V156.773H259.28V177.435C259.28 178.681 259.552 179.789 260.095 180.759C260.649 181.728 261.427 182.49 262.429 183.044C263.43 183.598 264.597 183.875 265.928 183.875C267.271 183.875 268.437 183.598 269.428 183.044C270.429 182.49 271.202 181.728 271.745 180.759C272.299 179.789 272.576 178.681 272.576 177.435V156.773ZM292.635 156.773V189.5H285.716V156.773H292.635Z" fill="#05060F"/>
<path d="M493.729 280.934C493.425 281.846 492.135 281.846 491.831 280.934L472.022 221.507C471.762 220.726 472.506 219.982 473.287 220.242L532.714 240.051C533.626 240.355 533.626 241.645 532.714 241.949L503.949 251.537C503.651 251.636 503.416 251.871 503.317 252.169L493.729 280.934Z" fill="#F8DB46" stroke="#05060F" stroke-width="4"/>
</svg>
